<svg xmlns="http://www.w3.org/2000/svg" width="337.52" height="497.693" viewBox="0 0 337.52 497.693"><path fill="#F4C592" d="M288.655 282.255L168.227 497.693 47.8 282.255"/><path fill="#353535" d="M202.57 436.255l-34.343 61.438-34.343-61.438"/><g><path fill="#FFAC41" d="M168.758 0C75.55 0 0 75.56 0 168.76c0 93.207 66.606 74.265 176.258 74.265 94.378 0 161.262 18.94 161.262-74.265C337.52 75.56 261.964 0 168.758 0zm.22 223.755c-30.24 0-54.75-24.513-54.75-54.75s24.51-54.75 54.75-54.75c30.235 0 54.75 24.513 54.75 54.75s-24.515 54.75-54.75 54.75z"/><path fill="#FE8F00" d="M114.227 169.005c0-14.05 5.3-26.862 14-36.555V5.457S.322 30.13.322 169.26c0 75.636 34.512 116.65 68.168 138.85 25.58 16.872-3.63-4.822 41.487-7.155 7.082-.366 18.25-4.907 18.25-18.7v-76.694c-8.702-9.693-14-22.503-14-36.555z"/><path fill="#FFBA61" d="M208.322 5.457v125.498c9.53 9.852 15.404 23.262 15.404 38.05s-5.875 28.2-15.404 38.052v75.2c0 13.79 11.167 18.332 18.25 18.698 45.116 2.333 15.906 24.027 41.486 7.155 33.656-22.2 68.168-63.214 68.168-138.85 0-139.13-127.904-163.803-127.904-163.803z"/><circle fill="#FE8F00" cx="87.869" cy="282.122" r="40.262"/><path fill="#FE8F00" d="M114.227 169.005c0-10.35 2.873-20.025 7.863-28.28H47.606v141.76h80.524V205.45c-8.643-9.68-13.903-22.446-13.903-36.445z"/><circle fill="#FFAC41" cx="168.394" cy="282.122" r="40.263"/><path fill="#FFAC41" d="M168.977 223.755c-16.24 0-30.82-7.076-40.846-18.305v77.036h80.527v-75.78c-9.975 10.495-24.058 17.05-39.68 17.05z"/><circle fill="#FFBA61" cx="248.92" cy="282.122" r="40.263"/><path fill="#FFBA61" d="M215.863 140.726c4.99 8.254 7.863 17.93 7.863 28.28 0 14.614-5.738 27.88-15.07 37.7v75.78h80.526v-141.76h-73.32z"/><path fill="#353535" d="M168.977 114.255c30.236 0 54.75 24.513 54.75 54.75s-24.514 54.75-54.75 54.75c-30.238 0-54.75-24.513-54.75-54.75s24.51-54.75 54.75-54.75m0-29c-46.18 0-83.75 37.57-83.75 83.75s37.57 83.75 83.75 83.75 83.75-37.57 83.75-83.75-37.57-83.75-83.75-83.75z"/></g></svg>